# xmcd CD database file
#
# Track frame offsets:
#	150
#	39987
#	75687
#	112882
#	142950
#	194250
#	245227
#
# Disc length: 3594 seconds
#
# Revision: 0
# Processed by: cddbd v1.5.1PL2 Copyright (c) Steve Scherf et al.
# Submitted via: CDex 1.51
#
DISCID=560e0807
DTITLE=びんちょうタン - びんちょうタン ドラマCD第二巻
DYEAR=2006
DGENRE=Anime
TTITLE0=びんちょうタンの一日
TTITLE1=はたらくびんちょうタン
TTITLE2=びんちょうタンと学校
TTITLE3=びんちょうタンと、プカシューと
TTITLE4=水を求めて三千里
TTITLE5=みんなの秋祭り
TTITLE6=キャストトーク
EXTD=YEAR: 2006
EXTT0=
EXTT1=
EXTT2=
EXTT3=
EXTT4=
EXTT5=
EXTT6=
PLAYORDER=
